# xmcd
#
# Track frame offsets: 
#        182
#        14380
#        33857
#        47715
#        58497
#        70875
#        85262
#        99767
#        113185
#        125377
#        141175
#        155212
#        170150
#        176880
#        193577
#        207772
#        221727
#        235965
#        251972
#        266355
#        278802
#        292897
#        305542
#        318805
#
# Disc length: 4447 seconds
#
# Revision: 2
# Processed by: cddbd v1.5.2PL0 Copyright (c) Steve Scherf et al.
# Submitted via: ExactAudioCopy v0.99pb4
#
DISCID=6a115d18
DTITLE=Various Artist - We Got Rhythm!
DYEAR=1995
DGENRE=Jazz
TTITLE0=Vilia - Ray Noble Orch
TTITLE1=I Cried For You - Jimmy Dorsey Orch
TTITLE2=When My Ship Comes In - George Hall Orch
TTITLE3=Love and Learn - Shep Fields Orch
TTITLE4=I Won't Dance - George Hall  Orch
TTITLE5=Hawaiian War Chant - Tommy Dorsey Orch
TTITLE6=Easy To Love -Al Bowlly -  Ray Noble  Orch
TTITLE7=The Lady Is a Tramp - Edythe Wright - Tommy Dorsey and His Clamb
TTITLE7=ake 7
TTITLE8=These Foolish Things - Helen Ward - Benny Goodman Orch
TTITLE9=A Room With a View - Artie Shaw Orch
TTITLE10=Yes There Ain't No Moonlight - Archie Berdahl - Tommy Tucker 
TTITLE10=Orch
TTITLE11=Marie - Tommy Dorsey Orch
TTITLE12=I'm Getting Sentimental Over You - Tommy Dorsey Orch
TTITLE13=Why Stars Come Out At Night - Al Bowlly - Ray Noble  Orch
TTITLE14=When Buddha Smiles - Benny Goodman Orch
TTITLE15=I Got Rhythm - Jimmy Dorsey Orch
TTITLE16=There's a Cabin In the Pines - George Hall  Orch
TTITLE17=Liebestraum - Tommy Dorsey Orch
TTITLE18=Soon - Al Bowlly - Ray Noble Orch
TTITLE19=O.K. Toots - George Hall Orch
TTITLE20=Who - Tommy Dorsey Orch
TTITLE21=You Turned the Tables On Me - Helen Ward - Benny Goodman Orch
TTITLE22=For All We Know - Ishman Jones Orch
TTITLE23=Little White Lies - Tommy Dorsey Orch
EXTD=YEAR: 1995
EXTT0=
EXTT1=
EXTT2=
EXTT3=
EXTT4=
EXTT5=
EXTT6=
EXTT7=
EXTT8=
EXTT9=
EXTT10=
EXTT11=
EXTT12=
EXTT13=
EXTT14=
EXTT15=
EXTT16=
EXTT17=
EXTT18=
EXTT19=
EXTT20=
EXTT21=
EXTT22=
EXTT23=
PLAYORDER=
